# AST/ASF file generated using VICON BodyLanguage
# -----------------------------------------------
:version 1.10
:name VICON
:units
  mass 1.0
  length 0.45
  angle deg
:documentation
   .ast/.asf automatically generated from VICON data using
   VICON BodyBuilder and BodyLanguage model FoxedUp or BRILLIANT.MOD
:root
   order TX TY TZ RX RY RZ
   axis XYZ
   position 0 0 0  
   orientation 0 0 0 
:bonedata
  begin
     id 1 
     name lhipjoint
     direction 0.645893 -0.654526 0.392961 
     length 2.38111 
     axis 0 0 0  XYZ
  end
  begin
     id 2 
     name lfemur
     direction 0.34202 -0.939693 0  
     length 6.6822  
     axis 0 0 20  XYZ
    dof rx ry rz
    limits (-160.0 20.0)
           (-70.0 70.0)
           (-60.0 70.0)
  end
  begin
     id 3 
     name ltibia
     direction 0.34202 -0.939693 0   
     length 6.93904   
     axis 0 0 20   XYZ
    dof rx
    limits (-10.0 170.0)
  end
  begin
     id 4 
     name lfoot
     direction 0.0694967 -0.190941 0.979138   
     length 2.13616   
     axis -90 7.62852e-016 20   XYZ
    dof rx rz
    limits (-45.0 90.0)
           (-70.0 20.0)
  end
  begin
     id 5 
     name ltoes
     direction 1.535e-011 -4.2202e-011 1   
     length 1.07536   
     axis -90 7.62852e-016 20   XYZ
    dof rx
    limits (-90.0 20.0)
  end
  begin
     id 6 
     name rhipjoint
     direction -0.700219 -0.612087 0.367481   
     length 2.54621  
     axis 0 0 0  XYZ 
  end
  begin
     id 7 
     name rfemur
     direction -0.34202 -0.939693 0   
     length 6.55353   
     axis 0 0 -20   XYZ
    dof rx ry rz
    limits (-160.0 20.0)
           (-70.0 70.0)
           (-70.0 60.0)
  end
  begin
     id 8 
     name rtibia
     direction -0.34202 -0.939693 0   
     length 6.8736   
     axis 0 0 -20   XYZ
    dof rx
    limits (-10.0 170.0)
 end
 begin
     id 9 
     name rfoot
     direction -0.0679995 -0.186827 0.980037   
     length 2.1218  
     axis -90 -7.62852e-016 -20   XYZ
    dof rx rz
    limits (-45.0 90.0)
           (-20.0 70.0)
  end
  begin
     id 10 
     name rtoes
     direction -1.53589e-011 -4.21772e-011 1   
     length 1.06864   
     axis -90 -7.62852e-016 -20   XYZ
    dof rx
    limits (-90.0 20.0)
  end
  begin
     id 11 
     name lowerback
     direction -0.0416607 0.996347 -0.0745409   
     length 2.12205   
     axis 0 0 0   XYZ
    dof rx ry rz
    limits (-20.0 45.0)
           (-30.0 30.0)
           (-30.0 30.0)
  end
  begin
     id 12 
     name upperback
     direction -0.000153993 0.999276 -0.0380568   
     length 2.12759   
     axis 0 0 0   XYZ
    dof rx ry rz
    limits (-20.0 45.0)
           (-30.0 30.0)
           (-30.0 30.0)
  end
  begin
     id 13 
     name thorax
     direction 0.0187671 0.999821 -0.00241421   
     length 2.13704   
     axis 0 0 0   XYZ
    dof rx ry rz
    limits (-20.0 45.0)
           (-30.0 30.0)
           (-30.0 30.0)
  end
  begin
     id 14 
     name lowerneck
     direction 0.0268157 0.964865 0.261374   
     length 1.65253   
     axis 0 0 0   XYZ
    dof rx ry rz
    limits (-20.0 45.0)
           (-30.0 30.0)
           (-30.0 30.0)
  end
  begin
     id 15 
     name upperneck
     direction 0.00263774 0.939908 -0.341418   
     length 1.72375   
     axis 0 0 0   XYZ
    dof rx ry rz
    limits (-20.0 45.0)
           (-30.0 30.0)
           (-30.0 30.0)
  end
  begin
     id 16
     name head
     direction -0.00526001 0.989001 -0.147818  
     length 1.74878  
     axis 0 0 0   XYZ
    dof rx ry rz
    limits (-20.0 45.0)
           (-30.0 30.0)
           (-30.0 30.0)
  end
  begin
     id 17 
     name lclavicle
     direction 0.881214 0.461162 -0.103884  
     length 3.25108  
     axis 0 0 0   XYZ
    dof ry rz
    limits (-20.0 10.0)
           (0.0 20.0)
  end
  begin
     id 18 
     name lhumerus
     direction 1 -4.4899e-011 3.38092e-027   
     length 4.87408   
     axis 180 -30 -90   XYZ
    dof rx ry rz
    limits (-60.0 90.0)
           (-90.0 90.0)
           (-90.0 90.0)
  end
  begin
     id 19
     name lradius
     direction 1 -4.48931e-011 9.96288e-027   
     length 2.76729   
     axis 180 -30 -90   XYZ
    dof rx
    limits (-10.0 170.0)
  end
  begin
     id 20
     name lwrist
     direction 1 -4.4896e-011 1.50617e-026   
     length 1.38364   
     axis -9.31234e-015 90 90   XYZ
    dof ry
    limits (-180.0 0.0)
 end
  begin
     id 21 
     name lhand
     direction 1 -4.49038e-011 3.01286e-026   
     length 0.98922   
     axis -1.92217e-014 90 90   XYZ
    dof rx rz
    limits (-90.0 90.0)
           (-45.0 45.0)
  end
  begin
     id 22 
     name lfingers
     direction 1 -4.49051e-011 6.02588e-026   
     length 0.797535   
     axis -3.84436e-014 90 90   XYZ
    dof rx
    limits (0.0 90.0)
  end
  begin
     id 23
     name lthumb
     direction 0.707107 -6.34901e-011 0.707107   
     length 1.14511   
     axis -90 45 2.19363e-014   XYZ
    dof rx rz
    limits (-45.0 45.0)
           (-45.0 45.0)
  end
  begin
     id 24 
     name rclavicle
     direction -0.893894 0.441652 -0.0767889   
     length 3.29361  
     axis 0 0 0   XYZ 
    dof ry rz
    limits (-10.0 20.0)
           (-20.0 0.0)
  end
  begin
     id 25 
     name rhumerus
     direction -1 -4.48945e-011 8.0491e-028  
     length 4.71404   
     axis 180 30 90   XYZ
    dof rx ry rz
    limits (-90.0 60.0)
           (-90.0 90.0)
           (-90.0 90.0)
  end
  begin
     id 26 
     name rradius
     direction -1 -4.48986e-011 9.27795e-027   
     length 2.83468   
     axis 180 30 90   XYZ
    dof rx
    limits (-10.0 170.0)
  end
  begin
     id 27 
     name rwrist
     direction -1 -4.49029e-011 1.5064e-026   
     length 1.41734   
     axis -9.31234e-015 -90 -90   XYZ
    dof ry
    limits (-180.0 0.0)
  end
  begin
     id 28
     name rhand
     direction -1 -4.48857e-011 3.01165e-026   
     length 0.868195   
     axis -1.92217e-014 -90 -90   XYZ
    dof rx rz
    limits (-90.0 90.0)
           (-45.0 45.0)
  end
  begin
     id 29
     name rfingers
     direction -1 -4.49048e-011 6.02585e-026   
     length 0.699961   
     axis -3.84436e-014 -90 -90   XYZ
    dof rx
    limits (0.0 90.0)
  end
  begin
     id 30
     name rthumb
     direction -0.707107 -6.34854e-011 0.707107   
     length 1.00501   
     axis -90 -45 -2.19363e-014   XYZ
    dof rx rz
    limits (-45.0 45.0)
           (-45.0 45.0)
  end
:hierarchy
  begin
    root lhipjoint rhipjoint lowerback
    lhipjoint lfemur
    lfemur ltibia
    ltibia lfoot
    lfoot ltoes
    rhipjoint rfemur
    rfemur rtibia
    rtibia rfoot
    rfoot rtoes
    lowerback upperback
    upperback thorax
    thorax lowerneck lclavicle rclavicle
    lowerneck upperneck
    upperneck head
    lclavicle lhumerus
    lhumerus lradius
    lradius lwrist
    lwrist lhand lthumb
    lhand lfingers
    rclavicle rhumerus
    rhumerus rradius
    rradius rwrist
    rwrist rhand rthumb
    rhand rfingers
  end

#!OML:ASF H:\ManfredObstacles\Project 1\Capture day 2\Session 1\male.ASF
:FULLY-SPECIFIED
:DEGREES
160
root 3.37039 14.5736 15.9545 -148.58 -34.5033 177.998
lowerback 29.2694 3.67403 -2.04174
upperback 18.9318 0.0150657 -0.346845
thorax 5.43742 -1.6209 0.625739
lowerneck -28.5153 -3.5794 0.00929262
upperneck 21.5894 -7.19784 7.26928
head 12.1376 -2.2158 1.42084
rclavicle -1.44989e-014 2.77895e-014
rhumerus -25.8928 12.5698 -95.2098
rradius 104.786
rwrist 37.1413
rhand -15.3189 -10.649
rfingers 7.12502
rthumb 10.8572 -40.3483
lclavicle -1.44989e-014 2.77895e-014
lhumerus -6.60684 -41.3176 80.6667
lradius 71.4046
lwrist -24.1658
lhand -16.8116 20.1893
lfingers 7.12502
lthumb 9.41715 49.9589
rfemur -83.0372 2.44196 3.3669
rtibia 52.7827
rfoot -11.4535 -29.6245
rtoes -20.4515
lfemur -54.5995 -4.55904 -15.6868
ltibia 60.2073
lfoot -17.0866 32.9355
ltoes 8.35584
161
root 3.35395 14.5828 15.8248 -148.73 -34.1117 178.08
lowerback 29.1841 3.69353 -2.07181
upperback 18.8859 0.0396992 -0.421421
thorax 5.41695 -1.60589 0.554898
lowerneck -28.5409 -3.56887 0.143522
upperneck 21.6654 -7.27162 7.32512
head 12.1746 -2.2277 1.40616
rclavicle -7.17178e-015 -1.1777e-014
rhumerus -25.7457 12.2233 -95.2
rradius 104.245
rwrist 37.2025
rhand -15.3713 -10.6736
rfingers 7.12502
rthumb 10.8066 -40.3756
lclavicle -7.17178e-015 -1.1777e-014
lhumerus -6.41455 -41.221 80.5328
lradius 70.4532
lwrist -24.0322
lhand -16.6455 20.1272
lfingers 7.12502
lthumb 9.57736 49.8895
rfemur -82.5347 2.33132 3.25706
rtibia 50.4976
rfoot -10.9822 -29.6332
rtoes -20.5752
lfemur -53.7105 -4.27882 -15.6089
ltibia 59.951
lfoot -17.046 33.2719
ltoes 7.95634
162
root 3.33921 14.5858 15.6939 -148.795 -33.6387 178.199
lowerback 28.9621 3.74728 -2.14192
upperback 18.8228 0.117638 -0.499843
thorax 5.43349 -1.56327 0.489652
lowerneck -28.5516 -3.56583 0.281476
upperneck 21.719 -7.35129 7.37028
head 12.1995 -2.2443 1.3857
rclavicle -1.57723e-014 3.0918e-014
rhumerus -25.5566 11.849 -95.204
rradius 103.626
rwrist 37.2598
rhand -15.4915 -10.7056
rfingers 7.12502
rthumb 10.6907 -40.4136
lclavicle -1.57723e-014 3.0918e-014
lhumerus -6.18925 -41.1275 80.4073
lradius 69.4388
lwrist -23.9711
lhand -16.474 20.048
lfingers 7.12502
lthumb 9.74283 49.8027
rfemur -82.1689 2.24226 3.25324
rtibia 48.291
rfoot -10.4838 -29.6084
rtoes -20.7249
lfemur -52.9358 -3.897 -15.5326
ltibia 59.6821
lfoot -16.969 33.5691
ltoes 7.55198
163
root 3.32364 14.5937 15.5557 -148.975 -33.3499 178.149
lowerback 28.9783 3.74141 -2.1562
upperback 18.7922 0.101778 -0.542914
thorax 5.38901 -1.57224 0.454656
lowerneck -28.5931 -3.56942 0.415661
upperneck 21.8051 -7.43903 7.40177
head 12.2425 -2.26436 1.35915
rclavicle 6.63817e-014 -9.30809e-014
rhumerus -25.3324 11.4453 -95.2248
rradius 102.936
rwrist 37.3376
rhand -15.5983 -10.7487
rfingers 7.12502
rthumb 10.5876 -40.462
lclavicle 6.63817e-014 -9.30809e-014
lhumerus -5.96527 -41.0394 80.3109
lradius 68.4012
lwrist -23.9792
lhand -16.2752 20.035
lfingers 7.12502
lthumb 9.93465 49.7806
rfemur -81.466 2.06431 3.26065
rtibia 46.2304
rfoot -10.1369 -29.6792
rtoes -20.8165
lfemur -51.8754 -3.71654 -15.5108
ltibia 59.3252
lfoot -16.9029 33.8152
ltoes 7.14125
164
root 3.30774 14.6038 15.4118 -149.211 -33.1769 177.986
lowerback 29.0661 3.77436 -2.35923
upperback 18.8015 0.0739004 -0.36948
thorax 5.36026 -1.62841 0.76738
lowerneck -28.6825 -3.60132 0.403844
upperneck 21.9291 -7.46086 7.29353
head 12.3024 -2.28197 1.31612
rclavicle 5.55852e-014 -1.9206e-014
rhumerus -25.0479 11.1738 -94.929
rradius 102.215
rwrist 37.328
rhand -15.6917 -10.8114
rfingers 7.12502
rthumb 10.4976 -40.5293
lclavicle 5.55852e-014 -1.9206e-014
lhumerus -5.72038 -40.7779 80.5408
lradius 67.2728
lwrist -24.0649
lhand -16.0821 20.0146
lfingers 7.12502
lthumb 10.121 49.7512
rfemur -80.5797 1.83225 3.28635
rtibia 44.3582
rfoot -9.94243 -29.8073
rtoes -20.8412
lfemur -50.6369 -3.66368 -15.5253
ltibia 58.8739
lfoot -16.8028 34.01
ltoes 6.72038
165
root 3.29176 14.6155 15.2621 -149.502 -33.1316 177.724
lowerback 29.2986 3.68781 -2.34298
upperback 18.82 -0.0710155 -0.33697
thorax 5.28625 -1.71365 0.829364
lowerneck -28.7748 -3.60466 0.500747
upperneck 22.0762 -7.52873 7.28719
head 12.3771 -2.29735 1.28493
rclavicle -3.11968e-014 -4.4975e-014
rhumerus -24.7527 10.8011 -94.8856
rradius 101.454
rwrist 37.3494
rhand -15.761 -10.9019
rfingers 7.12502
rthumb 10.4307 -40.6231
lclavicle -3.11968e-014 -4.4975e-014
lhumerus -5.47605 -40.594 80.5372
lradius 66.1462
lwrist -24.1645
lhand -15.8527 20.045
lfingers 7.12502
lthumb 10.3422 49.7707
rfemur -79.531 1.53385 3.35013
rtibia 42.7015
rfoot -9.89638 -29.9865
rtoes -20.7937
lfemur -49.2401 -3.74407 -15.5558
ltibia 58.338
lfoot -16.6675 34.1445
ltoes 6.29181
